<?xml version="1.0" standalone="no"?>
<!DOCTYPE svg PUBLIC "-//W3C//DTD SVG 20010904//EN"
 "http://www.w3.org/TR/2001/REC-SVG-20010904/DTD/svg10.dtd">
<svg version="1.0" xmlns="http://www.w3.org/2000/svg"
 width="512.000000pt" height="512.000000pt" viewBox="0 0 512.000000 512.000000"
 preserveAspectRatio="xMidYMid meet">

<g transform="translate(0.000000,512.000000) scale(0.100000,-0.100000)"
fill="#000000" stroke="none">
<path d="M2335 5105 c-217 -31 -394 -87 -584 -185 -555 -288 -914 -850 -938
-1470 -8 -221 23 -383 128 -663 182 -488 490 -1034 1209 -2147 179 -278 343
-533 364 -568 22 -34 42 -62 46 -62 4 0 35 46 70 102 35 57 156 245 269 418
572 880 819 1290 1041 1725 259 509 370 850 370 1135 -1 471 -209 939 -562
1264 -241 222 -567 384 -888 441 -131 23 -399 28 -525 10z m446 -421 c525 -90
950 -512 1044 -1039 22 -121 22 -334 0 -450 -36 -194 -112 -374 -223 -528 -76
-107 -249 -269 -355 -336 -434 -270 -970 -263 -1401 19 -99 64 -256 216 -329
318 -110 152 -186 332 -223 527 -21 115 -21 328 1 450 94 524 517 947 1040
1039 111 20 330 20 446 0z"/>
<path d="M1938 4090 c-71 -38 -87 -72 -140 -301 -46 -201 -49 -212 -83 -243
l-35 -33 0 -222 0 -222 25 -24 24 -25 831 0 831 0 24 25 25 24 0 222 0 222
-35 33 c-34 31 -38 42 -79 226 -25 106 -48 202 -52 213 -14 39 -56 85 -94 105
-38 19 -59 20 -622 20 -558 -1 -585 -2 -620 -20z m1175 -119 c13 -5 27 -17 30
-26 6 -14 87 -362 87 -371 0 -2 -301 -4 -670 -4 -368 0 -670 2 -670 4 0 9 81
357 87 371 3 9 15 21 27 25 29 12 1078 12 1109 1z m-1077 -605 c58 -58 42
-141 -33 -173 -27 -11 -42 -12 -69 -3 -117 39 -89 209 35 210 24 0 42 -9 67
-34z m1125 18 c36 -18 62 -73 53 -112 -9 -37 -50 -79 -85 -86 -71 -14 -137 50
-125 122 12 77 87 113 157 76z m-393 -6 c7 -7 12 -21 12 -33 0 -42 -14 -45
-220 -45 -206 0 -220 3 -220 45 0 42 14 45 220 45 139 0 199 -3 208 -12z m0
-150 c18 -18 14 -56 -7 -68 -12 -6 -95 -10 -201 -10 -106 0 -189 4 -201 10
-21 12 -25 50 -7 68 17 17 399 17 416 0z"/>
<path d="M1807 2923 c-4 -3 -7 -43 -7 -88 0 -68 4 -87 21 -109 20 -25 24 -26
120 -26 134 0 139 5 139 135 l0 95 -133 0 c-74 0 -137 -3 -140 -7z"/>
<path d="M3040 2835 c0 -130 5 -135 139 -135 96 0 100 1 121 27 18 23 20 38
18 112 l-3 86 -137 3 -138 3 0 -96z"/>
</g>
</svg>
